#!OML:ASF F:\VICON\USERDATA\INSTALL\rory3\rory3.ASF
:FULLY-SPECIFIED
:DEGREES
156
root 0.601327 22.6009 -5.80808 1.77938 3.70896 -0.23779
lowerback 5.39152 -0.726072 -0.93823
upperback 0.984746 -0.948199 3.213
thorax -1.93903 -0.461001 3.9094
lowerneck -12.138 -4.07824 -8.9362
upperneck 29.2969 -5.25652 5.26752
head 12.0079 -2.69527 2.78528
rclavicle 1.16289e-014 -8.74653e-015
rhumerus -72.1435 17.6018 -76.4944
rradius 85.0826
rwrist -6.20735
rhand -7.68535 14.1031
rfingers 7.12502
rthumb 18.2116 -15.0643
lclavicle 1.16289e-014 -8.74653e-015
lhumerus -67.718 -0.367365 68.4341
lradius 81.2773
lwrist 10.1187
lhand -20.7719 24.2179
lfingers 7.12502
lthumb 5.59454 54.1241
rfemur -7.7387 1.06148 24.7518
rtibia 38.1374
rfoot 28.291 -9.80785
rtoes 17.6065
lfemur -11.6959 1.35927 -23.8013
ltibia 45.2184
lfoot 28.0093 -6.93429
ltoes -0.958102
157
root 0.588433 22.6527 -5.65924 1.52898 3.66082 -0.349878
lowerback 5.86409 -0.705969 -0.900049
upperback 0.966409 -0.913651 3.25899
thorax -2.22456 -0.439815 3.94314
lowerneck -12.0452 -4.05065 -9.01726
upperneck 29.6885 -5.22614 5.2856
head 12.146 -2.69319 2.81869
rclavicle 1.86858e-014 -3.26007e-014
rhumerus -71.6947 17.7097 -76.117
rradius 84.0397
rwrist -6.32875
rhand -7.27801 14.2043
rfingers 7.12502
rthumb 18.6034 -14.9261
lclavicle 1.86858e-014 -3.26007e-014
lhumerus -67.5878 -0.270977 67.7503
lradius 79.9755
lwrist 9.46212
lhand -21.4715 20.71
lfingers 7.12502
lthumb 4.91909 50.6329
rfemur -8.32039 0.984599 24.8265
rtibia 37.7869
rfoot 27.4908 -9.18975
rtoes 14.9089
lfemur -12.0728 1.65034 -23.8028
ltibia 44.8263
lfoot 26.1918 -5.89325
ltoes -2.28895
158
root 0.57842 22.6907 -5.50914 1.36904 3.41454 -0.439947
lowerback 6.3118 -0.606563 -0.86968
upperback 0.961083 -0.774446 3.28248
thorax -2.49084 -0.366827 3.9485
lowerneck -11.9626 -3.87851 -8.92539
upperneck 29.7682 -4.94348 5.0777
head 12.127 -2.58366 2.76718
rclavicle -1.11319e-014 6.36111e-015
rhumerus -71.1999 17.7127 -75.7258
rradius 83.0187
rwrist -6.18075
rhand -6.6178 14.5212
rfingers 7.12502
rthumb 19.2384 -14.5472
lclavicle -1.11319e-014 6.36111e-015
lhumerus -67.4954 -0.287559 67.2447
lradius 78.8584
lwrist 9.13425
lhand -21.4962 21.0413
lfingers 7.12502
lthumb 4.89527 50.9648
rfemur -9.02052 1.04492 24.8081
rtibia 37.3536
rfoot 26.9924 -8.45396
rtoes 13.4186
lfemur -12.4602 1.98986 -23.843
ltibia 44.2675
lfoot 23.627 -4.99785
ltoes -6.8632
159
root 0.574686 22.7196 -5.35447 1.13641 3.24202 -0.347142
lowerback 6.53782 -0.517565 -0.894812
upperback 1.15089 -0.662806 3.17443
thorax -2.43038 -0.314089 3.84236
lowerneck -11.7424 -3.82269 -8.81831
upperneck 29.4833 -4.87924 5.02119
head 11.9565 -2.55004 2.73441
rclavicle 8.84592e-015 -9.54166e-015
rhumerus -70.6781 17.4832 -75.4519
rradius 82.0455
rwrist -5.69798
rhand -6.28242 14.513
rfingers 7.12502
rthumb 19.5608 -14.523
lclavicle 8.84592e-015 -9.54166e-015
lhumerus -67.1742 -0.338044 66.8785
lradius 77.7168
lwrist 9.53946
lhand -21.52 22.4869
lfingers 7.12502
lthumb 4.87228 52.4109
rfemur -9.58182 0.96808 24.5013
rtibia 36.8672
rfoot 26.1677 -7.62709
rtoes 13.0474
lfemur -12.6295 2.10646 -24.0927
ltibia 43.527
lfoot 21.9704 -4.17427
ltoes -8.44142
160
root 0.56904 22.733 -5.19863 0.882417 3.19924 -0.077597
lowerback 6.81092 -0.492052 -1.14543
upperback 1.27407 -0.650398 3.06446
thorax -2.45483 -0.307376 3.87195
lowerneck -11.6118 -3.80125 -8.90533
upperneck 29.4473 -4.86867 5.12584
head 11.9196 -2.54377 2.7917
rclavicle 1.50082e-014 -2.8625e-014
rhumerus -70.209 17.4338 -75.2354
rradius 81.0021
rwrist -5.1211
rhand -6.39944 14.2328
rfingers 7.12502
rthumb 19.4483 -14.8145
lclavicle 1.50082e-014 -2.8625e-014
lhumerus -66.8918 -0.253375 66.4297
lradius 76.4534
lwrist 9.55851
lhand -21.9755 22.3572
lfingers 7.12502
lthumb 4.43238 52.2908
rfemur -10.0042 0.912021 24.018
rtibia 36.2975
rfoot 25.0322 -6.92321
rtoes 13.8124
lfemur -12.7182 1.97772 -24.4889
ltibia 42.6385
lfoot 21.1332 -3.57698
ltoes -7.13806
161
root 0.55879 22.7272 -5.04332 0.688662 3.05081 0.031403
lowerback 7.11278 -0.467829 -1.38048
upperback 1.30964 -0.634803 3.0783
thorax -2.5848 -0.296335 4.02326
lowerneck -11.6501 -3.76497 -9.05713
upperneck 29.7199 -4.78938 5.13831
head 12.0349 -2.52592 2.83831
rclavicle -1.73937e-014 1.66979e-014
rhumerus -69.639 17.5415 -74.9603
rradius 79.896
rwrist -4.61773
rhand -6.59893 14.3949
rfingers 7.12502
rthumb 19.2565 -14.6717
lclavicle -1.73937e-014 1.66979e-014
lhumerus -66.7121 -0.0112133 65.9575
lradius 75.0237
lwrist 9.2032
lhand -22.1577 21.9112
lfingers 7.12502
lthumb 4.25649 51.8484
rfemur -10.4441 1.11251 23.7376
rtibia 35.6032
rfoot 24.1691 -6.25004
rtoes 14.9414
lfemur -12.9092 1.82479 -24.6702
ltibia 41.6577
lfoot 20.3932 -3.09158
ltoes -6.11452
162
root 0.549614 22.7179 -4.8819 0.568828 2.89058 -0.0302135
lowerback 7.25342 -0.367234 -1.356
upperback 1.40555 -0.501653 3.03625
thorax -2.57526 -0.231534 3.9544
lowerneck -11.6847 -3.80407 -8.97894
upperneck 29.8487 -4.86407 5.13266
head 12.0975 -2.55171 2.81397
rclavicle -1.50082e-014 1.19271e-014
rhumerus -68.944 17.2076 -74.7331
rradius 78.6975
rwrist -4.2247
rhand -6.63453 14.4846
rfingers 7.12502
rthumb 19.2223 -14.5855
lclavicle -1.50082e-014 1.19271e-014
lhumerus -66.1705 0.0610701 65.4755
lradius 73.5693
lwrist 8.69295
lhand -21.7133 22.9237
lfingers 7.12502
lthumb 4.68562 52.8519
rfemur -10.9394 1.26073 23.6153
rtibia 34.8491
rfoot 23.5044 -5.61666
rtoes 14.6589
lfemur -13.1596 1.58579 -24.6338
ltibia 40.6191
lfoot 19.6569 -2.55817
ltoes -4.28267
163
root 0.542974 22.7024 -4.71892 0.439357 2.80226 -0.204186
lowerback 7.41739 -0.270057 -1.13952
upperback 1.47506 -0.357705 2.98805
thorax -2.60783 -0.161787 3.76931
lowerneck -11.5569 -3.85715 -8.91494
upperneck 29.7974 -4.98994 5.21291
head 12.061 -2.59203 2.81627
rclavicle -1.03368e-014 1.43125e-014
rhumerus -68.2987 16.944 -74.645
rradius 77.2972
rwrist -3.92471
rhand -6.80874 14.2182
rfingers 7.12502
rthumb 19.0548 -14.8684
lclavicle -1.03368e-014 1.43125e-014
lhumerus -65.5897 0.0067596 64.9909
lradius 72.2075
lwrist 7.91267
lhand -20.9013 24.3245
lfingers 7.12502
lthumb 5.4696 54.2339
rfemur -11.4379 1.31902 23.6156
rtibia 34.0233
rfoot 22.767 -5.16679
rtoes 12.5167
lfemur -13.3915 1.2799 -24.4205
ltibia 39.553
lfoot 18.8952 -1.92672
ltoes -1.68393
164
root 0.532695 22.6674 -4.56574 0.341624 2.67799 -0.235968
lowerback 7.66958 -0.215459 -1.14277
upperback 1.49493 -0.28529 2.96691
thorax -2.73322 -0.124258 3.74515
lowerneck -11.4268 -3.85783 -9.05418
upperneck 29.7721 -5.00573 5.33817
head 12.0333 -2.60119 2.88702
rclavicle 1.12313e-014 -9.54166e-015
rhumerus -67.6807 16.9749 -74.5823
rradius 75.8618
rwrist -3.64058
rhand -7.3607 14.0486
rfingers 7.12502
rthumb 18.5239 -15.0895
lclavicle 1.12313e-014 -9.54166e-015
lhumerus -65.3885 -0.0951924 64.774
lradius 71.0307
lwrist 8.15433
lhand -20.9586 23.7375
lfingers 7.12502
lthumb 5.41432 53.6483
rfemur -12.0315 1.49491 23.4952
rtibia 33.171
rfoot 21.9237 -4.72196
rtoes 8.98266
lfemur -13.6711 0.968943 -24.3378
ltibia 38.4269
lfoot 18.1969 -1.43237
ltoes -0.093742
165
root 0.519619 22.6183 -4.41131 0.223204 2.6307 -0.30209
lowerback 7.90473 -0.222206 -1.17767
upperback 1.55354 -0.296115 3.00513
thorax -2.8023 -0.128998 3.8084
lowerneck -11.3763 -3.80525 -9.26285
upperneck 29.7194 -4.91645 5.45423
head 12.0037 -2.57087 2.97967
rclavicle 6.85807e-015 8.74653e-015
rhumerus -66.9839 17.0869 -74.4808
rradius 74.564
rwrist -3.52132
rhand -7.68626 13.9999
rfingers 7.12502
rthumb 18.2107 -15.1676
lclavicle 6.85807e-015 8.74653e-015
lhumerus -65.2793 -0.186699 64.8518
lradius 69.932
lwrist 9.22379
lhand -22.1629 22.2798
lfingers 7.12502
lthumb 4.2515 52.2171
rfemur -12.5922 1.61718 23.4175
rtibia 32.3535
rfoot 21.1216 -4.37224
rtoes 5.82158
lfemur -13.9273 0.650756 -24.1867
ltibia 37.2227
lfoot 17.7221 -1.3502
ltoes 0.396451
